/* XPM */
static char *result[] = {
/* columns rows colors chars-per-pixel */
"32 32 61 1 ",
"  c #4A2611",
". c #4E2913",
"X c #4F2F1A",
"o c #502A13",
"O c #4F301B",
"+ c #55331C",
"@ c #59351D",
"# c #4F3B2C",
"$ c #573723",
"% c #593720",
"& c #5B3B25",
"* c #543D2C",
"= c #5C3E2A",
"- c #5E412C",
"; c #574031",
": c #5B4535",
"> c #5E4A3B",
", c #61432E",
"< c #634632",
"1 c #644833",
"2 c #654B38",
"3 c #5D564D",
"4 c #5F584E",
"5 c #645646",
"6 c #6C5442",
"7 c #655847",
"8 c #6F5847",
"9 c #61574C",
"0 c #645A4E",
"q c #695B4C",
"w c #635C52",
"e c #685F52",
"r c #666056",
"t c #696155",
"y c #676358",
"u c #6B645B",
"i c #6F685F",
"p c #756D5B",
"a c #77705B",
"s c #79715E",
"d c #6F6A60",
"f c #736D63",
"g c #766F68",
"h c #757066",
"j c #7C7462",
"k c #7D7B6E",
"l c #7F7C70",
"z c #817E72",
"x c #838175",
"c c #878578",
"v c #89867A",
"b c #8C8A7E",
"n c #8E8C81",
"m c #918E85",
"M c #939186",
"N c #96948B",
"B c #99968D",
"V c #9A988F",
"C c #9D9B92",
"Z c #A09D96",
"A c None",
/* pixels */
"AAAAAAAAAAAAAAAAAAAAAAAAAAAAAAAA",
"AAAAAAAAAAAAAAAAAAAAAAAAAAAAAAAA",
"AAAAAAAAAAA===<,==&&oAAAAAAAAAAA",
"AAAAAAAAA11BBBNmmnmxxooAAAAAAAAA",
"AAAAAAA86mVBNBBmmmmxzxxXoAAAAAAA",
"AAAAAA2vmMBBBBBmmmmxxzlfgoAAAAAA",
"AAAAA1vcmMBBBBNmmmmzzzxgfhoAAAAA",
"AAAAA1cvmmBBBBBmmmmxczzgfd.AAAAA",
"AAAAA1vvmNBBBBBmmmmzczzfdf.AAAAA",
"AAAAA1vvMmBBZZZNBBBnzzzffd.AAAAA",
"AAAAA1vvmmZZggffgdfdmmcfdf.AAAAA",
"AA&=&1vvCBhgfggggffdddzghi....AA",
"A<mvv1mbhffg@@@$$@$&ddddlf.577.A",
"A,Mvv@gffh@@eeqqqq5q=$udul.577.A",
"A,Mvv+pfj-qeueuwuueeeq$duu 757.A",
"A1Nvv@ff&6eee2255*5eww0$uu.750.A",
"A1Vvv+ff&wwee:gggg*wwww$dw e0e.A",
"A1Vvv+ff&00www=***ww4wwOuu.wqe.A",
"A1Vvv@fp@000wewwww9w0wwOww.w0t A",
"A1Vvv&ii+q9w99ww9499wwwOww.wqe A",
"A1Vvv&ue%99w**w###9#ww0Xr4.0qt A",
"A1Bvv%uu%999yr4uue9w99wX33Xetb A",
"A1Bvc%yy@@$$=&---==-=XXX33Oekn A",
"A,Nvcc<-jjhsaaaafpppfipp#-kkkn A",
"A1Nvvcczxxxxkzzkllklkkkkkkkkkb A",
"A<MvcxccxxxxzzlzlklkkkkkkkkkkM A",
"A,ZCCCBMMMMnbbnnbnbbbbbbvvMMMM A",
"Aopdwweewwww003333rwrrr33330ry A",
"A.fwewewwwww44443333rrr333333y A",
"A.dwwwwwwww4w4443434rw3333333y A",
"A...Xooo.. . ..                A",
"AAAAAAAAAAAAAAAAAAAAAAAAAAAAAAAA"
};
