/* XPM */
static char *result[] = {
/* columns rows colors chars-per-pixel */
"32 32 39 1 ",
"  c #532E17",
". c #542E18",
"X c #5B351E",
"o c #5E381F",
"O c #5F3921",
"+ c #633D24",
"@ c #673F29",
"# c #674127",
"$ c #664028",
"% c #6B452A",
"& c #6C4B2D",
"* c #71492F",
"= c #6F4A30",
"- c #734D33",
"; c #765034",
": c #785135",
"> c #775339",
", c #7A553A",
"< c #7E593D",
"1 c #815B3F",
"2 c #835D41",
"3 c #866043",
"4 c #8A6346",
"5 c #8D6649",
"6 c #8F684B",
"7 c #916B4D",
"8 c #956F51",
"9 c #967152",
"0 c #9A7556",
"q c #967559",
"w c #9B7759",
"e c #9D795A",
"r c #A27E5D",
"t c #9E7D61",
"y c #A17F63",
"u c #A3805F",
"i c #A58363",
"p c #A98664",
"a c None",
/* pixels */
"aaaaaaaaaaaaaa,<<><aaaaaaaaaaaaa",
"aaaaaaaaaaaa<,qqttt,>aaaaaaaaaaa",
"aaaaaaaaaaa-tt%===%tt=aaaaaaaaaa",
"aaaaaaaaaaa-w=>222<@i=aaaaaaaaaa",
"aaaaaaaaaa-5i=,<22>@q2+aaaaaaaaa",
"aaaaaaaaaa=6i-,232>@q<@aaaaaaaaa",
"aaaaaaaaaa=6ii,<32>qq2Oaaaaaaaaa",
"aaaaaaaaaaa$5iiitttq<.aaaaaaaaaa",
"aaaaaaaaaa%,@#55422Oo=.aaaaaaaaa",
"aaaaaaaaa%5534+++++--<-.aaaaaaaa",
"aaaaaaaa%77804534,,;4<-*.aaaaaaa",
"aaaaaaa%57900r436,,542,*-.aaaaaa",
"aaaaaaa%590r0rrre008441,=.aaaaaa",
"aaaaaa%5,90ruuuure089441+=.aaaaa",
"aaaaaa%591ruuppurre9994@,&.aaaaa",
"aaaaaa%7904uuppppyr999*2,&.aaaaa",
"aaaaaa%600u77ppiprr91-141*.aaaaa",
"aaaaaa%690upp677231176111*.aaaaa",
"aaaaaa%590uppupuur996611-* aaaaa",
"aaaaaa%79euuppppur9966111@ aaaaa",
"aaaaaa%770uuppiurr997211,*Xaaaaa",
"aaaaaaa+60ruuiirr088721:*.aaaaaa",
"aaaaaaa#&00errru00887411o.aaaaaa",
"aaaaaaa+%**00ee0098541ooo.aaaaaa",
"aaaaaaa+2=--;w099966##+O& aaaaaa",
"aaaaaaaa@==5-;;*;&&##<+O aaaaaaa",
"aaaaaaaa@-2-;;5;*&<%&#&&.aaaaaaa",
"aaaaaaaaa+-<1---*&&#>&&.aaaaaaaa",
"aaaaaaaaaa+>111<,,,,&& aaaaaaaaa",
"aaaaaaaaaaa@--<<,,&%&.aaaaaaaaaa",
"aaaaaaaaaaaa$$=--;& .aaaaaaaaaaa",
"aaaaaaaaaaaaaaXXX. aaaaaaaaaaaaa"
};
