/* XPM */
static char *result[] = {
/* columns rows colors chars-per-pixel */
"32 32 229 2 ",
"   c #4F2913",
".  c #512C15",
"X  c #522C15",
"o  c #532D15",
"O  c #532E16",
"+  c #532E17",
"@  c #542D15",
"#  c #542E15",
"$  c #542E16",
"%  c #552E16",
"&  c #552F16",
"*  c #573018",
"=  c #55301A",
"-  c #56311B",
";  c #57341E",
":  c #58331B",
">  c #58331C",
",  c #58331D",
"<  c #59341C",
"1  c #59341D",
"2  c #59351D",
"3  c #5A351D",
"4  c #5B361D",
"5  c #5A351E",
"6  c #5A361E",
"7  c #5A371E",
"8  c #5B381F",
"9  c #593621",
"0  c #593722",
"q  c #5E3A21",
"w  c #5D3B22",
"e  c #5E3B22",
"r  c #5F3C22",
"t  c #5F3D22",
"y  c #5D3B25",
"u  c #5D3B26",
"i  c #5E3C24",
"p  c #5D3C27",
"a  c #5F3E28",
"s  c #603D24",
"d  c #613E24",
"f  c #613F25",
"g  c #623F25",
"h  c #623F26",
"j  c #603F28",
"k  c #5D412A",
"l  c #624028",
"z  c #634128",
"x  c #634228",
"c  c #60402A",
"v  c #61402B",
"b  c #644229",
"n  c #644329",
"m  c #64432A",
"M  c #65432A",
"N  c #654429",
"B  c #65442A",
"V  c #67452B",
"C  c #66462B",
"Z  c #67462B",
"A  c #63422C",
"S  c #63462F",
"D  c #66452C",
"F  c #67462D",
"G  c #64442E",
"H  c #65452F",
"J  c #68472E",
"K  c #68482E",
"L  c #69482E",
"P  c #69492E",
"I  c #68492F",
"U  c #69492F",
"Y  c #6A492E",
"T  c #624630",
"R  c #634731",
"E  c #644831",
"W  c #664B35",
"Q  c #674C36",
"!  c #6B4A30",
"~  c #6A4A32",
"^  c #6B4B32",
"/  c #6A4B33",
"(  c #6A4C33",
")  c #6D4D33",
"_  c #694E37",
"`  c #6F4F35",
"'  c #6F4F36",
"]  c #694E38",
"[  c #6A4F38",
"{  c #6A4F39",
"}  c #6D4F38",
"|  c #6B5037",
" . c #6F5135",
".. c #6A5038",
"X. c #6B5039",
"o. c #6C513A",
"O. c #6C543D",
"+. c #705135",
"@. c #705234",
"#. c #705036",
"$. c #705137",
"%. c #715336",
"&. c #725337",
"*. c #725437",
"=. c #705239",
"-. c #725338",
";. c #70523A",
":. c #70523B",
">. c #72533A",
",. c #725438",
"<. c #73563A",
"1. c #745639",
"2. c #71563D",
"3. c #74583C",
"4. c #715943",
"5. c #725942",
"6. c #735A42",
"7. c #745B44",
"8. c #765D45",
"9. c #765D46",
"0. c #775E46",
"q. c #765E47",
"w. c #775E47",
"e. c #795D47",
"r. c #785E46",
"t. c #785F47",
"y. c #765F48",
"u. c #765F49",
"i. c #765F4A",
"p. c #786047",
"a. c #77604A",
"s. c #76614A",
"d. c #77604B",
"f. c #796048",
"g. c #78614B",
"h. c #79624B",
"j. c #78614C",
"k. c #79614C",
"l. c #7A614C",
"z. c #79624C",
"x. c #7F674C",
"c. c #7E6A51",
"v. c #7F6A51",
"b. c #806447",
"n. c #81684D",
"m. c #846A4C",
"M. c #846B4C",
"N. c #856B4C",
"B. c #856B4D",
"V. c #856C4D",
"C. c #866C4D",
"Z. c #866C4E",
"A. c #866D4E",
"S. c #876D4E",
"D. c #836C50",
"F. c #816C52",
"G. c #816C53",
"H. c #826C53",
"J. c #836D53",
"K. c #876F51",
"L. c #866F53",
"P. c #836D54",
"I. c #836E54",
"U. c #836E55",
"Y. c #846D55",
"T. c #846F55",
"R. c #856E56",
"E. c #846F56",
"W. c #877051",
"Q. c #887051",
"!. c #887052",
"~. c #887152",
"^. c #897152",
"/. c #897153",
"(. c #897253",
"). c #8A7253",
"_. c #8A7254",
"`. c #8A7354",
"'. c #8D7557",
"]. c #8B755A",
"[. c #8D7658",
"{. c #8E7658",
"}. c #8C765D",
"|. c #8F795A",
" X c #90795B",
".X c #907B5C",
"XX c #907B5D",
"oX c #917D5E",
"OX c #927D5E",
"+X c #927D5F",
"@X c #927E5F",
"#X c #937E5F",
"$X c #947E63",
"%X c #947F63",
"&X c #95805F",
"*X c #958060",
"=X c #958160",
"-X c #968161",
";X c #968162",
":X c #958262",
">X c #968262",
",X c #978263",
"<X c #958164",
"1X c #978365",
"2X c #948266",
"3X c #958267",
"4X c #9B8766",
"5X c #968468",
"6X c #9D8769",
"7X c #9C8868",
"8X c #9D8869",
"9X c #9D8969",
"0X c #9E8A6B",
"qX c #9D896C",
"wX c #9C886D",
"eX c #9E896D",
"rX c #9F8A6C",
"tX c #9F8B6D",
"yX c #9F8A6E",
"uX c #9E8B6E",
"iX c #9E8A6F",
"pX c #9F8B70",
"aX c #A08B6E",
"sX c #A18E72",
"dX c #A39076",
"fX c #A39077",
"gX c #A39177",
"hX c #A49279",
"jX c None",
/* pixels */
"jXjXjXjXjXjXjXjXjXjXjXjXjXjX! ' $.>.jXjXjXjXjXjXjXjXjXjXjXjXjXjX",
"jXjXjXjXjXjXjXjXjXjXjXjXjXq }.$X$X].: jXjXjXjXjXjXjXjXjXjXjXjXjX",
"jXjXjXjXjXjXjXjXjXjXjXjXjXg l.R.e.:.4 jXjXjXjXjXjXjXjXjXjXjXjXjX",
"jXjXjXjXjXjX/ } / ~ J n M L k.Y.r.;.t ! ) #.$.` ^ U F jXjXjXjXjX",
"jXjXjXjXjXD hX,X1X:X-X;X>X5X=.=.=.=.b.Z.=X*X&X*X<X3X2Xm jXjXjXjX",
"jXjXjXjX( n.fXgXdXdXsXaXtXrX0X9X9X8X7X4X6XeXyXuXiXiXiXm jXjXjXjX",
"jXjXjXI L.pX^./.C.Z.S.S.S.S.S.S.S.S.S.S.S.S.`._.).(.^.m jXjXjXjX",
"jXjXl D.qX!.^.B.C.Z.S.S.S.S.S.S.S.S.S.S.S.S.`._.C.V.^.b jXjXjXjX",
"jXw x.wX!.!.^.V.C.Z S.V S.n N B S.N B P S.B x P C.V.^.z jXjXjXjX",
"jXi %XW.!.m.N.B.C.Z A.Y S.{.#X#XS.C XXXXS.+XK OXC.B.^.z jXjXjXjX",
"jXjX8 K.Q.m.N.B.C.%.Z.&.S. .@.+.S.@X*.,.S.S.-.C.V.B.^.h jXjXjXjX",
"jXjXjXr Q.!.M.B.B.'.3.+XS..X1. XS.1.@X<.S.A.<.C.V./.~.d jXjXjXjX",
"jXjXjXjXf !.!.N.B.C.oXZ.A.S.|.S.S.[.S.[.A.Z.'.V./.^.!.s jXjXjXjX",
"jXjXjXjXjXf !.~.N.B.C.C.Z.A.A.S.S.S.A.A.Z.C.C.B./.~.!.s jXjXjXjX",
"jXjXjXjXjXjX7 w e 3 # $ % % % % & & % % % $ # @ o o X jXjXjXjXjX",
"jXjXjXjXjXjXjXjXjXjXjXjXjX6 ..2.| S * jXjXjXjXjXjXjXjXjXjXjXjXjX",
"jXjXjXjXjXjXjXjXjXjXjXjXjXi d.E.f.o.3 jXjXjXjXjXjXjXjXjXjXjXjXjX",
"jXjXjXjXjXjXjXjXjXjXjXjXjXj h.T.p.X.1 jXjXjXjXjXjXjXjXjXjXjXjXjX",
"jXjXjXjXjXjXjXjXjXjXjXjXjXH z.U.t.X.< jXjXjXjXjXjXjXjXjXjXjXjXjX",
"jXjXjXjXjXjXjXjXjXjXjXjXjXG j.U.w.{ > jXjXjXjXjXjXjXjXjXjXjXjXjX",
"jXjXjXjXjXjXjXjXjXjXjXjXjXA g.I.0.[ 5 jXjXjXjXjXjXjXjXjXjXjXjXjX",
"jXjXjXjXjXjXjXjXjXjXjXjXjXv d.P.9.] 2 jXjXjXjXjXjXjXjXjXjXjXjXjX",
"jXjXjXjXjXjXjXjXjXjXjXjXjXc a.J.8.] 2 jXjXjXjXjXjXjXjXjXjXjXjXjX",
"jXjXjXjXjXjXjXjXjXjXjXjXjXa s.H.7._ , jXjXjXjXjXjXjXjXjXjXjXjXjX",
"jXjXjXjXjXjXjXjXjXjXjXjXjXu i.H.7.Q - jXjXjXjXjXjXjXjXjXjXjXjXjX",
"jXjXjXjXjXjXjXjXjXjXjXjXjXu u.H.7.Q = jXjXjXjXjXjXjXjXjXjXjXjXjX",
"jXjXjXjXjXjXjXjXjXjXjXjXjXp y.G.7.W + jXjXjXjXjXjXjXjXjXjXjXjXjX",
"jXjXjXjXjXjXjXjXjXjXjXjXjXy q.F.6.E O jXjXjXjXjXjXjXjXjXjXjXjXjX",
"jXjXjXjXjXjXjXjXjXjXjXjXjX0 4.v.5.R . jXjXjXjXjXjXjXjXjXjXjXjXjX",
"jXjXjXjXjXjXjXjXjXjXjXjXjX9 4.c.O.T   jXjXjXjXjXjXjXjXjXjXjXjXjX",
"jXjXjXjXjXjXjXjXjXjXjXjXjX; 4.c.O.k   jXjXjXjXjXjXjXjXjXjXjXjXjX",
"jXjXjXjXjXjXjXjXjXjXjXjXjXjX        jXjXjXjXjXjXjXjXjXjXjXjXjXjX"
};
