/* XPM */
static char *result[] = {
/* columns rows colors chars-per-pixel */
"32 32 9 1 ",
"  c #34241D",
". c #37322C",
"X c #4F3D23",
"o c #5E4236",
"O c #6D542C",
"+ c #765A4C",
"@ c #7F6A4C",
"# c #8D7262",
"$ c None",
/* pixels */
"$$$$$$$$$$$$$$$$$$$$$$$$$$$$$$$$",
"$$$$$$$$$$$$$$$$$$$$$$$$$$$$$$$$",
"$$$$$$$$$$$$$$$$$$$$$$$$$$$$$$$$",
"$$$$$$$$$$$$$$$$$$$$$$$$$$$$$$$$",
"$$$$$$$$$$$$$$$$$$$$$$$$$$$$$$$$",
"$$$$$$$$$$$$$$$$$$$$$$$$$$$$$$$$",
"$$$$$$$$$$$$$$$$$$$$$$$$$$$$$$$$",
"$$$$$$$$$$$$$$$$$$$$$$$$$$$$$$$$",
"$$$$$$$$$....$$$$$$$....$$$$$$$$",
"$$$$$$$$.XO@O.$$$$$.O@OX.$$$$$$$",
"$$$$$$$$.O@@@.......@@@O.$$$$$$$",
"$$$$$$$$.O@@OOOOOOOOO@@O.$$$$$$$",
"$$$$$$$$$.O@@@@@@@@@@@O.$$$$$$$$",
"$$$$$$$$.X@@@@@@@@@@@@@X.$$$$$$$",
"$$$$$$ $.O@@@@@@@@@@@@@O.$ $$$$$",
"$$$$$ + .O@@@@@@@@@@@@@O. + $$$$",
"$$$$ +# .O@@@@@@@@@@@@@O. #+ $$$",
"$$$$o##+ OO@@@@@@@@@@@OO +##o$$$",
"$$$ +###o OO@@@@@@@@@OO o###+ $$",
"$$$o##+##o OOOOOOOOOOO o##+##o$$",
"$$ +##+###o XXOOOOOXX o###+##+ $",
"$$ +#++#++#o ....... o#++#++#+ $",
"$$ +#++#+o++o  @@@  o++o+#++#+ $",
"$$ +#+o++ o oo @@@ oo o ++o+#+ $",
"$$ +#+ +o  X  @@@@@  O  o+ +#+ $",
"$$ ++o o $...@@@@@@@..@@ o o++ $",
"$$$o+ $ $$$$.O@XOX@O.$..$ $ +o$$",
"$$$ o $$$$$$.O.@@O.O.$$$$$$ o $$",
"$$$$ $$$$$$$.@.XOX..$$$$$$$$ $$$",
"$$$$$$$$$$$$.@@....$$$$$$$$$$$$$",
"$$$$$$$$$$$$.OO.$$$$$$$$$$$$$$$$",
"$$$$$$$$$$$$$..$$$$$$$$$$$$$$$$$"
};
