/* XPM */
static char *result[] = {
/* columns rows colors chars-per-pixel */
"32 32 5 1 ",
"  c #72751B",
". c #7F8124",
"X c #787B21",
"o c #686F16",
"O c white",
/* pixels */
"                                ",
"                                ",
"                                ",
"                                ",
"                                ",
"     .                          ",
"      .                         ",
"      XX                        ",
"     oXX                        ",
"    .Xoo                        ",
"    XX                          ",
"    oo                          ",
"                                ",
"                                ",
"                                ",
"                                ",
"                                ",
"                                ",
"                                ",
"                                ",
"      ..     .             X    ",
"       .XX X.              XX   ",
"    X..oXoXXo              oX   ",
"     .XXooXXo               o   ",
"     oXX  Xo                    ",
"      oX                        ",
"                ..   .          ",
"                 .. .           ",
"                 XXoX           ",
"                 oXoo           ",
"                  o             ",
"                                "
};
