/* XPM */
static char *result[] = {
/* columns rows colors chars-per-pixel */
"32 32 15 1 ",
"  c #393737",
". c #403D3D",
"X c #295E00",
"o c #4F422F",
"O c #4B4748",
"+ c #544B4C",
"@ c #575353",
"# c #656060",
"$ c #439C00",
"% c #918F8D",
"& c #A1999A",
"* c #C5C1BF",
"= c #E1E1DF",
"- c white",
"; c None",
/* pixels */
";;;;;;;;;;;;;;;;;;;;;;;;;;;;;;;;",
";;;;;;;;;;;;;;;;;;;;;;;;;;;;;;;;",
";;;;;;;;;;;;;;;;;;;;;;;;;;;;;;;;",
";;;;;;;;;;;;;;;;;;;;;;;;;;;;;;;;",
";;;;;;;;;;;;;;;;;;;;;;;;;;;;;;;;",
";;;;;;;;;;;;;;;;;;;;;;;;;;;;;;;;",
";;;;;;;;;;;;;;;;;;;;;;;;;;;;;;;;",
";;;;;;;;;;;;;   ;;;  ;;;;;;;;;;;",
";;;;;;;;;;;; O#@ ; OO ;;;;;;;;;;",
";;;;;;;;;;; O#OO & O. ;;;;;;;;;;",
";;;;;;;;;;; O#OO*==*. ;;;;;;;;;;",
";;;;;;;;;;&O@@------=*&;;;;;;;;;",
";;;;;;;;;&=------###--= ;;;;;;;;",
";;;;;;;;&*------#oo##-#o ;;;;;;;",
";;;;;;;;&=-----##o-##-#- ;;;;;;;",
";;;;;;;;&=-----##XX##-#X ;;;;;;;",
";;;;;;;;&=-----##$$#--#$ ;;;;;;;",
";;;;;;;;&*------###--+=O ;;;;;;;",
";;;;;;;;;&=---------%*%&;;;;;;;;",
";;;;;;;;;;&&*=======*&&;;;;;;;;;",
";;;;;;;;;;;;&&&&&&&&&;;;;;;;;;;;",
";;;;;;;;;;;; @###@@@ ;;;;;;;;;;;",
";;;;;;;;;;; @#O####@ ;;;;;;;;;;;",
";;;;;;;;;;; ## =###@ ;;;;;;;;;;;",
";;;;;;;;;;; ## =---=&;;;;;;;;;;;",
";;;;;;;;;;; @@ ==-=&;;;;;;;;;;;;",
";;;;;;;;;;;&  O@*** ;;;;;;;;;;;;",
";;;;;;;;;;;&* O@@ O ;;;;;;;;;;;;",
";;;;;;;;;;;;& O@@ O ;;;;;;;;;;;;",
";;;;;;;;;;;;; OOO  ;;;;;;;;;;;;;",
";;;;;;;;;;;;;;   ;;;;;;;;;;;;;;;",
";;;;;;;;;;;;;;;;;;;;;;;;;;;;;;;;"
};
