/* XPM */
static char *result[] = {
/* columns rows colors chars-per-pixel */
"32 32 18 1 ",
"  c #34241D",
". c #37322C",
"X c #4F3D23",
"o c #4F2F33",
"O c #5E4236",
"+ c #6D542C",
"@ c #765A4C",
"# c #7F6A4C",
"$ c #8D7262",
"% c #FF5E53",
"& c #C28800",
"* c #FFB300",
"= c #FFD100",
"- c #FFEF00",
"; c #AC8B61",
": c #FFA398",
"> c #F4F4F4",
", c None",
/* pixels */
",,,,,,,,,,,,,,,,,,,,,,,,,,,,,,,,",
",,,,,,,,,,,,,,,,,,,,,,,,,,,,,,,,",
",,,,,,,,,,,,,,,,,,,,,,,,,,,,,,,,",
",,,,,,,,,,,,,,,,,,,,,,,,,,,,,,,,",
",,,,,,,,,,,,,,,,,,,,,,,,,,,,,,,,",
",,,,,,,,,,,,,,,,,,,,,,,,,,,,,,,,",
",,,,,,,,,,,,,,,,,,,,,,,,,,,,,,,,",
",,,,,,,,,,,,,,,,,,,,,,,,,,,,,,,,",
",,,,,,,,,....,,,,,,,....,,,,,,,,",
",,,,,,,,.X+#+.,,,,,.+#+X.,,,,,,,",
",,,,,,,,.+XX#.......#XX+.,,,,,,,",
",,,,,,,,.+XX+X+++++X+XX+.,,,,,,,",
",,,,,,,,,.X+#########+X.,,,,,,,,",
",,,,,,,,.X+###########+X.,,,,,,,",
",,,,,, ,.+##o#######o##+., ,,,,,",
",,,,, @ .+##oo#####oo##+. @ ,,,,",
",,,, @$ .+##%>#####>%##+. $@ ,,,",
",,,,O$@O.+##::#&&&#::##+.O@$O,,,",
",,, @$OO.X+###&*-*&###+X.OO$@ ,,",
",,,O$@OOO.X+#&*=-=*&#+X.OOO@$O,,",
",, @$OOOOO..X;&&&&&;X..OOOOO$@ ,",
",, @@OOOOOO...........OOOOOO@@ ,",
",, @@OOOOO.+#+++++++#+.OOOOO@@ ,",
",, @OOOOO.XX+#########+.OOOOO@ ,",
",, @OO OO.XX.#######X##.OO OO@ ,",
",, @OO O ,...#######.##. O OO@ ,",
",,,OO , ,,,,.+#####+...,, , OO,,",
",,, O ,,,,,,.+XXXXXX.,,,,,, O ,,",
",,,, ,,,,,,,.##...X.,,,,,,,, ,,,",
",,,,,,,,,,,,.##.,..,,,,,,,,,,,,,",
",,,,,,,,,,,,.++.,,,,,,,,,,,,,,,,",
",,,,,,,,,,,,,..,,,,,,,,,,,,,,,,,"
};
