/* XPM */
static char *result[] = {
/* columns rows colors chars-per-pixel */
"32 32 15 1 ",
"  c #37322C",
". c #4F3D23",
"X c #59462F",
"o c #6D542C",
"O c #7F6A4C",
"+ c #953800",
"@ c #B35C00",
"# c #D97F00",
"$ c #FF9500",
"% c #FFBB00",
"& c #FFEF00",
"* c #AC8B61",
"= c #C3AB8D",
"- c #CFBCA4",
"; c None",
/* pixels */
";;;;;;;;;;;;;;;;;;;;;;;;;;;;;;;;",
";;;;;;;;;;;;;;;;;;;;;;;;;;;;;;;;",
";;;;;;;;;;;;;;;;;;;;;;;;;;;;;;;;",
";;;;;;;;;;;;;;;;+;;;;;;;;;;;;;;;",
";;;;;;;;;;;;;;;+#+;;;;;;;;;;;;;;",
";;;;;;;;;;;++++@$@++++;;;;;;;;;;",
";;;;;;;;;++@@@+#$#+@@@++;;;;;;;;",
";;;;;;;;+@@#$$@@@@@$$#@@+;;;;;;;",
";;;;;;;+@@@@##@###@##@@@@+;;;;;;",
";;;;;;;+@#$%$@$$$$$@$%$#@+;;;;;;",
";;;;;;+@#$%$#$$%%%$$#$%$#@+;;;;;",
";;;;;;+@#$$$#$$$%$$$#$$$#@+;;;;;",
";;;;;;+@#$$$#$$$$$$$#$$$#@+;;;;;",
";;;;;;+@#$@@@@@#$#@@@@@$#@+;;;;;",
";;;;;;+@#$@&&&&#$#&&&&@$#@+;;;;;",
";;;;;;+@##$&&&&$$$&&&&$##@+;;;;;",
";;;;;;+@@##$&&$$@$$&&$##@@+;;;;;",
";;;;;;;+@#@#$$$@@@$$$#@#@+;;;;;;",
";;;;;;;+@@@O$$#####$$O@@@+;;;;;;",
";;;;;;;;+@@o##-X*X-##o@@+;;;;;;;",
";;;;;;;;;++ .*=====*. ++;;;;;;;;",
";;;;;;;;;;;           ;;;;;;;;;;",
";;;;;;;;;; oOoooooooOo ;;;;;;;;;",
";;;;;;;;; oOOOOOOOOOo.. ;;;;;;;;",
";;;;;;;;; OO.OOOOOOO .. ;;;;;;;;",
";;;;;;;;; OO OOOOOOO   ;;;;;;;;;",
";;;;;;;;;;   oOOOOOo ;;;;;;;;;;;",
";;;;;;;;;;;; ......o ;;;;;;;;;;;",
";;;;;;;;;;;;; .   OO ;;;;;;;;;;;",
";;;;;;;;;;;;;;  ; OO ;;;;;;;;;;;",
";;;;;;;;;;;;;;;;; oo ;;;;;;;;;;;",
";;;;;;;;;;;;;;;;;;  ;;;;;;;;;;;;"
};
