/* XPM */
static char *result[] = {
/* columns rows colors chars-per-pixel */
"32 32 19 1 ",
"  c #34241D",
". c #3D2F1B",
"X c #37322C",
"o c #4F3D23",
"O c #4F2F33",
"+ c #5E4236",
"@ c #6D542C",
"# c #765A4C",
"$ c #7F6A4C",
"% c #8D7262",
"& c #FF5E53",
"* c #C28800",
"= c #FFB300",
"- c #FFD100",
"; c #FFEF00",
": c #C3AB8D",
"> c #FFA398",
", c #F4F4F4",
"< c None",
/* pixels */
"<<<<<<<<<<<<<<<<<<<<<<<<<<<<<<<<",
"<<<<<<<<<<<<<<<<<<<<<<<<<<<<<<<<",
"<<<<<<<<<<<<<<<<<<<<<<<<<<<<<<<<",
"<<<<<<<<<<<<<<<<<<<<<<<<<<<<<<<<",
"<<<<<<<<<<<<<<<<<<<<<<<<<<<<<<<<",
"<<<<<<<<<<<<<<<<<<<<<<<<<<<<<<<<",
"<<<<<<<<<<<<<<<<<<<<<<<<<<<<<<<<",
"<<<<<<<<<<<<<<<<<<<<<<<<<<<<<<<<",
"<<<<<<<<<<<<<XXX<<<XX<<<<<<<<<<<",
"<<<<<<<<<<<<Xo$@X<XooX<<<<<<<<<<",
"<<<<<<<<<<<Xo$ooXXXo.X<<<<<<<<<<",
"<<<<<<<<<<<Xo$ooo@@o.X<<<<<<<<<<",
"<<<<<<<<<<Xo@@$$$$$$@oX<<<<<<<<<",
"<<<<<<<<<X@$$$$$$$$$$$@X<<<<<<<<",
"<<<<<< <Xo$$$$$$$O$$$$$oX<<<<<<<",
"<<<<< # X@$$$$$$$OO$$$$OX<<<<<<<",
"<<<< #% X@$$$$$$$&,$$$$,X<<<<<<<",
"<<<<+%#+X@$$$$$$$>>$***>X<<<<<<<",
"<<< #%++Xo$$$$$$$$$*-;=*X<<<<<<<",
"<<<+%#+++X@$$$$$$$*-;;;=*<<<<<<<",
"<< #%+++++XXo@@@@@:*****<<<<<<<<",
"<< #%+++++++XXXXXXXXX<<<<<<<<<<<",
"<< #%++++++Xo@$$$@@@X<<<<<<<<<<<",
"<< ##++++ X@$$o$$$$@XX<<<<<<<<<<",
"<< ##+ ++X@$$Xo@$$$@XoX<<<<<<<<<",
"<< +#+ + X@$@X@@$$$@XoX<<<<<<<<<",
"<<<+# < <<X@Xo@@@$@XXX<<<<<<<<<<",
"<<< + <<<<<XXo@@@ooX<<<<<<<<<<<<",
"<<<< <<<<<<XoXo@@@X<<<<<<<<<<<<<",
"<<<<<<<<<<<<XXX@@@@X<<<<<<<<<<<<",
"<<<<<<<<<<<<<<<XoooX<<<<<<<<<<<<",
"<<<<<<<<<<<<<<<<XXX<<<<<<<<<<<<<"
};
