/* XPM */
static char *result[] = {
/* columns rows colors chars-per-pixel */
"32 32 19 1 ",
"  c #34241D",
". c #3D2F1B",
"X c #37322C",
"o c #4F3D23",
"O c #4F2F33",
"+ c #5E4236",
"@ c #6D542C",
"# c #765A4C",
"$ c #7F6A4C",
"% c #8D7262",
"& c #FF5E53",
"* c #C28800",
"= c #FFB300",
"- c #FFD100",
"; c #FFEF00",
": c #C3AB8D",
"> c #FFA398",
", c #F4F4F4",
"< c None",
/* pixels */
"<<<<<<<<<<<<<<<<<<<<<<<<<<<<<<<<",
"<<<<<<<<<<<<<<<<<<<<<<<<<<<<<<<<",
"<<<<<<<<<<<<<<<<<<<<<<<<<<<<<<<<",
"<<<<<<<<<<<<<<<<<<<<<<<<<<<<<<<<",
"<<<<<<<<<<<<<<<<<<<<<<<<<<<<<<<<",
"<<<<<<<<<<<<<<<<<<<<<<<<<<<<<<<<",
"<<<<<<<<<<<<<<<<<<<<<<<<<<<<<<<<",
"<<<<<<<<<<<<<<<<<<<<<<<<<<<<<<<<",
"<<<<<<<<<<<<XX<<<XXX<<<<<<<<<<<<",
"<<<<<<<<<<<XooX<X@$oX<<<<<<<<<<<",
"<<<<<<<<<<<X.oXXXoo$oX<<<<<<<<<<",
"<<<<<<<<<<<X.o@@ooo$oX<<<<<<<<<<",
"<<<<<<<<<<Xo@$$$$$$@@oX<<<<<<<<<",
"<<<<<<<<<X@$$$$$$$$$$$@X<<<<<<<<",
"<<<<<<<<Xo$$$$$O$$$$$$$oX< <<<<<",
"<<<<<<<<XO$$$$OO$$$$$$$@X # <<<<",
"<<<<<<<<X,$$$$,&$$$$$$$@X %# <<<",
"<<<<<<<<X>***$>>$$$$$$$@X+#%+<<<",
"<<<<<<<<X*=;-*$$$$$$$$$oX++%# <<",
"<<<<<<<<*=;;;-*$$$$$$$@X+++#%+<<",
"<<<<<<<<<*****:@@@@@oXX+++++%# <",
"<<<<<<<<<<<<XXXXXXXXX+++++++%# <",
"<<<<<<<<<<<<X@@@$$$@X+++++++%# <",
"<<<<<<<<<<<<X@$$$X$$X + ++++## <",
"<<<<<<<<<<<<X@$$X$$@X<  ++ +## <",
"<<<<<<<<<<<<X@$X$$@XX<<< + +#+ <",
"<<<<<<<<<<<<<X@X@@XoXX<<< < #+<<",
"<<<<<<<<<<<<XoooXXooXoX<<<< + <<",
"<<<<<<<<<<<XooXX@@@oXoX<<<<< <<<",
"<<<<<<<<<<<XooX<X@@ooX<<<<<<<<<<",
"<<<<<<<<<<<<XX<<<XooX<<<<<<<<<<<",
"<<<<<<<<<<<<<<<<<<XX<<<<<<<<<<<<"
};
