/* XPM */
static char *result[] = {
/* columns rows colors chars-per-pixel */
"32 32 10 1 ",
"  c #37322C",
". c #4F3D23",
"X c #6D542C",
"o c #7F6A4C",
"O c #953800",
"+ c #B35C00",
"@ c #D97F00",
"# c #FF9500",
"$ c #FFBB00",
"% c None",
/* pixels */
"%%%%%%%%%%%%%%%%%%%%%%%%%%%%%%%%",
"%%%%%%%%%%%%%%%%%%%%%%%%%%%%%%%%",
"%%%%%%%%%%%%%%%%%%%%%%%%%%%%%%%%",
"%%%%%%%%%%%%%%%%O%%%%%%%%%%%%%%%",
"%%%%%%%%%%%%%%%O@O%%%%%%%%%%%%%%",
"%%%%%%%%%%%OOOO+#+OOOO%%%%%%%%%%",
"%%%%%%%%%OO+++O@#@O+++OO%%%%%%%%",
"%%%%%%%%O++@##+++++##@++O%%%%%%%",
"%%%%%%%O++++@@+@@@+@@++++O%%%%%%",
"%%%%%%%O+@#$#+#####+#$#@+O%%%%%%",
"%%%%%%O+@#$#@##$$$##@#$#@+O%%%%%",
"%%%%%%O+@###@###$###@###@+O%%%%%",
"%%%%%%O+@##@#########@##@+O%%%%%",
"%%%%%%O+@##@#########@##@+O%%%%%",
"%%%%%%O+@##@#########@##@+O%%%%%",
"%%%%%%O+@@#@#########@#@@+O%%%%%",
"%%%%%%O++@@+@#######@+@@++O%%%%%",
"%%%%%%%O+@@+@@#####@@+@@+O%%%%%%",
"%%%%%%%O++@@+@@@@@@@+@@++O%%%%%%",
"%%%%%%%%O+++++@@@@@+++++O%%%%%%%",
"%%%%%%%%%OO+++++++++++OO%%%%%%%%",
"%%%%%%%%%%%OOOOOOOOOOO%%%%%%%%%%",
"%%%%%%%%%% XoXoooooXoX %%%%%%%%%",
"%%%%%%%%% ooXooooooo.X. %%%%%%%%",
"%%%%%%%% ooX ooooooo .. %%%%%%%%",
"%%%%%%%% oo  ooooooo   %%%%%%%%%",
"%%%%%%%%%  % Xo.X.oX %%%%%%%%%%%",
"%%%%%%%%%%%% X Xoo X %%%%%%%%%%%",
"%%%%%%%%%%%%%  .X. o %%%%%%%%%%%",
"%%%%%%%%%%%%%%    oo %%%%%%%%%%%",
"%%%%%%%%%%%%%%%%% XX %%%%%%%%%%%",
"%%%%%%%%%%%%%%%%%%  %%%%%%%%%%%%"
};
