/* XPM */
static char *result[] = {
/* columns rows colors chars-per-pixel */
"32 32 212 2 ",
"   c #523215",
".  c #543315",
"X  c #543415",
"o  c #563515",
"O  c #563615",
"+  c #573715",
"@  c #583615",
"#  c #583715",
"$  c #553815",
"%  c #553816",
"&  c #593B15",
"*  c #583A16",
"=  c #593A16",
"-  c #593B16",
";  c #593D16",
":  c #5A3D16",
">  c #5B3D16",
",  c #5B3E16",
"<  c #5A3F17",
"1  c #5B3F17",
"2  c #5B4017",
"3  c #5C4017",
"4  c #5C4217",
"5  c #5C4317",
"6  c #5D4317",
"7  c #5D4417",
"8  c #5D4218",
"9  c #5C4318",
"0  c #5D4318",
"q  c #5D4319",
"w  c #5D4418",
"e  c #5E4419",
"r  c #5E4519",
"t  c #5F4519",
"y  c #5F4619",
"u  c #565112",
"i  c #575112",
"p  c #575212",
"a  c #575213",
"s  c #535715",
"d  c #585213",
"f  c #535815",
"g  c #545815",
"h  c #555815",
"j  c #545915",
"k  c #555915",
"l  c #545816",
"z  c #555816",
"x  c #545916",
"c  c #555916",
"v  c #555917",
"b  c #565916",
"n  c #565917",
"m  c #555A17",
"M  c #565A16",
"N  c #575B16",
"B  c #565A17",
"V  c #575A17",
"C  c #575B17",
"Z  c #575C17",
"A  c #585B17",
"S  c #585C17",
"D  c #595C17",
"F  c #585D17",
"G  c #595D17",
"H  c #5A5E17",
"J  c #5B5E17",
"K  c #5C5E17",
"L  c #595C18",
"P  c #5A5D18",
"I  c #595E18",
"U  c #5B5E18",
"Y  c #5C5F18",
"T  c #604519",
"R  c #604619",
"E  c #614719",
"W  c #624819",
"Q  c #624919",
"!  c #634919",
"~  c #63491A",
"^  c #644A1A",
"/  c #644B1A",
"(  c #654B1A",
")  c #664C1A",
"_  c #674C1A",
"`  c #674D1A",
"'  c #674D1B",
"]  c #625819",
"[  c #635919",
"{  c #655B19",
"}  c #665C19",
"|  c #675D1A",
" . c #685E1A",
".. c #5D6018",
"X. c #606218",
"o. c #606318",
"O. c #616318",
"+. c #626418",
"@. c #626519",
"#. c #636519",
"$. c #636619",
"%. c #67691A",
"&. c #67691B",
"*. c #676A1A",
"=. c #68691B",
"-. c #686B1A",
";. c #686A1B",
":. c #696A1B",
">. c #696B1B",
",. c #696C1A",
"<. c #6A6C1A",
"1. c #6A6D1B",
"2. c #6B6D1B",
"3. c #6B6E1B",
"4. c #6C6E1B",
"5. c #6C6F1B",
"6. c #6D6F1B",
"7. c #6E6F1B",
"8. c #6C6D1D",
"9. c #6C6E1D",
"0. c #6D6F1D",
"q. c #766916",
"w. c #776916",
"e. c #6D701B",
"r. c #6E701B",
"t. c #6E711B",
"y. c #6E711C",
"u. c #6F711C",
"i. c #6F721C",
"p. c #70711B",
"a. c #70721C",
"s. c #70731C",
"d. c #71731C",
"f. c #72731D",
"g. c #73751E",
"h. c #74761D",
"j. c #75761D",
"k. c #75771D",
"l. c #74751E",
"z. c #75751E",
"x. c #76761E",
"c. c #77761E",
"v. c #76771E",
"b. c #77771E",
"n. c #7E731D",
"m. c #7F731D",
"M. c #7F731E",
"N. c #78771F",
"B. c #7F741E",
"V. c #77781E",
"C. c #6F6F21",
"Z. c #6F7021",
"A. c #707021",
"S. c #777721",
"D. c #767522",
"F. c #767622",
"G. c #777622",
"H. c #777722",
"J. c #787722",
"K. c #787821",
"L. c #797822",
"P. c #7A7922",
"I. c #797A23",
"U. c #7B7A23",
"Y. c #7D7C22",
"T. c #7D7D22",
"R. c #7E7D22",
"E. c #7F7E22",
"W. c #7F7E23",
"Q. c #7F7F23",
"!. c #7B7B25",
"~. c #797928",
"^. c #7A7928",
"/. c #7A7A28",
"(. c #7B7A28",
"). c #7C7A29",
"_. c #80741E",
"`. c #807F23",
"'. c #818023",
"]. c #828123",
"[. c #838123",
"{. c #838223",
"}. c #838224",
"|. c #848224",
" X c #848324",
".X c #878429",
"XX c #87842D",
"oX c #888429",
"OX c #888529",
"+X c #89862C",
"@X c #89872C",
"#X c #89862D",
"$X c #89872D",
"%X c #8A862D",
"&X c #8A872D",
"*X c #88842E",
"=X c #89852F",
"-X c #8A872E",
";X c #888331",
":X c #888431",
">X c #898432",
",X c #898532",
"<X c #8A8532",
"1X c #8A8632",
"2X c #8B8632",
"3X c #8C8733",
"4X c #8D8733",
"5X c #8D8833",
"6X c #8E8833",
"7X c #8E8933",
"8X c #8F8934",
"9X c None",
/* pixels */
"9X9X9X9X9X9X9X9X9X9X9X9X9X9X9X9X9X9X9X9X9X9X9X9X9X9X9X9X9X9X9X9X",
"9X9X9X9X9X9X9X9X9X9X9X9X9X9X9X9X9X9X9X9X9X9X9X9X9X9X9X9X9X9X9X9X",
"9X9X9X9X9X9X9X9X9X9X9X9X9X9X9X9X9X9X9X9X9X9X9X9X9X9X9X9X9X9X9X9X",
"9X9X9X9X9X9X9X9X9X9X9X9X9X9X9X9X9X9X9X9X9X9X9X9X9X9X9X9X9X9X9X9X",
"9X9X9X9X9X9X9X9X9X9X9X9X9X9X9X( ( ^ 9X9X9X9X9X9X9X9X9X9X9X9X9X9X",
"9X9X9X9X9X9X9X9X9X9X9X9X9X9X) 3X3X3X^ 9X9X9X9X9X9X9X9X9X9X9X9X9X",
"9X9X9X9X9X9X9X9X9X9X) _ ` 9X` 5X3X3X( 9X^ ~ 9X9X9X9X9X9X9X9X9X9X",
"9X9X9X9X9X9X9X9X9X_ 5X5X6X' }.5X5X].].( G.F.! 9X9X9X9X9X9X9X9X9X",
"9X9X9X9X9X9X9X9X9X` 6X7X7X|.|.}.}.{.].J.H.F.D.W 9X9X9X9X9X9X9X9X",
"9X9X9X9X9X9X( ) ` }.|.|. X X X|.|.}.[.L.J.G.F.Q 9X9X9X9X9X9X9X9X",
"9X9X9X9X9X/ 3X4X5X7X#X@Xh. X8X7X7X}.{.].J.H.| } E R t 9X9X9X9X9X",
"9X9X9X9X9X( 3X4X5X7XOX-Xh.h.8X8X7X7X{.].l. .| } 0.9.8.r 9X9X9X9X",
"9X9X9X9X9X9X) 5X5XoXOXh.h.h.j.8X7X7X{.v.z.g.f.} 0.9.8.t 9X9X9X9X",
"9X9X9X9X9X9X9X) {..Xq.w.&X&Xk.v.7X6XV.b.x.'.`.E.{ 9.T 9X9X9X9X9X",
"9X9X9X9X9X^ ( ].[.}.q. X@X$X$Xv.v.N.b.b.3X2X<XE.r.R 9X9X9X9X9X9X",
"9X9X9X9X~ XX*X=X5X{.}.|.+X%X%X_.B.m.c.v.2X2X<Xp.7.5.t e 9X9X9X9X",
"9X9X9X9XQ <X2X3X3X].{.5X6X}.B.M.m.n.3X3X2X<Xs.t.5.4.3.1.w 9X9X9X",
"9X9X9X9XW <X2X2Xd.d.5X5X5X{.[.[.n.3X3X2X`.W.E.R.5.3.3.1.k 9 9X9X",
"9X9X9X9X9XQ K.U.a.d.3X3X<.].].].].3X2X2XQ.E.R.T.4.3.2.k h w 9X9X",
"9X9X9X9XE K.!.I.1X2X2X,.-.3X3X3X'.'.`.Q.E.>X:XY.3.[ ] x 0 9X9X9X",
"9X9X9XR ;.S.S.P.<X<X1X*.*.2X2X2Xi.`.W.r.>X:X;X4.3.m x 7 9X9X9X9X",
"9X9X9Xy =.;.:.>.>X,Xy.%.*.<X<Xu.u.t.r.e.:X;X4.3.2.c j s 5 9X9X9X",
"9X9X9Xe Z.A.=.+.+.e.r.r.r.r.r.} r.e.6.6.C V 3.1.c j g f s 4 9X9X",
"9X9X9Xq C.A.&.O.5.5.6.6.6.6.e.H H 6.5.4.d a n v c K J J J 4 9X9X",
"9X9X9X9X6 0 X.o././.(...5.5.I G F 4.3.a p i m c z J J J 2 9X9X9X",
"9X9X9X9X9X9X8 ).~.^./.Y [ [ D D Z [ p i u $.$.z l J J < 9X9X9X9X",
"9X9X9X9X9X9X3 ~.~.~.1 U P L S A C % B M $.#.@.* = - ; 9X9X9X9X9X",
"9X9X9X9X9X9X9X> , : 9X& G S N + $ 9X. b @.@.O 9X9X9X9X9X9X9X9X9X",
"9X9X9X9X9X9X9X9X9X9X9X9X# @ o 9X9X9X9X    X 9X9X9X9X9X9X9X9X9X9X",
"9X9X9X9X9X9X9X9X9X9X9X9X9X9X9X9X9X9X9X9X9X9X9X9X9X9X9X9X9X9X9X9X",
"9X9X9X9X9X9X9X9X9X9X9X9X9X9X9X9X9X9X9X9X9X9X9X9X9X9X9X9X9X9X9X9X",
"9X9X9X9X9X9X9X9X9X9X9X9X9X9X9X9X9X9X9X9X9X9X9X9X9X9X9X9X9X9X9X9X"
};
