/* XPM */
static char *result[] = {
/* columns rows colors chars-per-pixel */
"32 32 40 1 ",
"  c #56311A",
". c #5A341C",
"X c #5E3820",
"o c #633D24",
"O c #663F28",
"+ c #664027",
"@ c #684127",
"# c #664129",
"$ c #6A442B",
"% c #6C4A2E",
"& c #714A2F",
"* c #6D4B31",
"= c #734C33",
"- c #784E34",
"; c #6E5032",
": c #735135",
"> c #795237",
", c #7A553A",
"< c #7E593D",
"1 c #805B3E",
"2 c #835D41",
"3 c #866144",
"4 c #8A6346",
"5 c #8C6549",
"6 c #8F684B",
"7 c #926B4D",
"8 c #8F6D52",
"9 c #946F51",
"0 c #957153",
"q c #9A7456",
"w c #97765A",
"e c #9A7659",
"r c #97785B",
"t c #9D795A",
"y c #A47F5F",
"u c #9C7D61",
"i c #A4805F",
"p c #A48263",
"a c #A38668",
"s c None",
/* pixels */
"ssssssssssssssssssssssssssssssss",
"ssssssssssssssssssssssssssssssss",
"ssssssssssssssssssssssssssssssss",
"ssssssssssss*$###$$sssssssssssss",
"ssssssssss*=wwwwwww#$sssssssssss",
"ssssssss*$ee====,,<wu##sssssssss",
"sssssss*wqOO<235655:=uw$ssssssss",
"ssssss$qwO,<<25555532*wu#sssssss",
"ssssss$e$*><125555551<$w$sssssss",
"sssss#reO*,1125555521,$uuXssssss",
"ssssso5p#*,,122555351<$w=Xssssss",
"sssssO5pO*=,,2222222<,$8,Xssssss",
"sssss+6pa$==,<2<22<2==99>.ssssss",
"ssss$6O7aa*&=<<,,,,;=98,X=.sssss",
"sss$570@65aa*=*&***89>-o=== ssss",
"sss$570t*$66aaaawwu22oo,,==.ssss",
"sss$67qyyy&&6664222Oo111->& ssss",
"sss+&7yyyyyy1&&&OOO65411>>O.ssss",
"sss@3>yyyyyyyyy0y0864211>o& ssss",
"sss@3711yyyyyyy0q077442XX&&.ssss",
"sssO470q133iiiyye976OOO-==% ssss",
"ssso3711yqy11111>=&$111OO=* ssss",
"ssso3711qyqy0q066611111OO%% ssss",
"sssso-0qq44q00066411&$1&=  sssss",
"ssss+1>qq44t01164&%<$%<=.* sssss",
"ssssso<=:qq092165;%<<<..* ssssss",
"ssssss.1<&==000545<oo+;% sssssss",
"sssssss..,,,$$$@@@o;%%  ssssssss",
"sssssssss...:;::;;;   ssssssssss",
"ssssssssssss....   sssssssssssss",
"ssssssssssssssssssssssssssssssss",
"ssssssssssssssssssssssssssssssss"
};
